<svg width="50" height="40" viewBox="0 0 50 40" fill="none" xmlns="http://www.w3.org/2000/svg">
<path fill-rule="evenodd" clip-rule="evenodd" d="M16.3655 0H33.6241C36.5969 0 39.0117 2.3806 39.0219 5.31133V27.7369C39.0219 31.948 35.5519 35.3689 31.2804 35.3689C28.6931 35.3689 26.4102 34.1185 24.9999 32.1981C23.5896 34.1185 21.2966 35.3689 18.7194 35.3689C14.4479 35.3689 10.9779 31.948 10.9779 27.7369V5.31133C10.9779 2.3806 13.3927 0 16.3655 0ZM17.6845 14.8437C17.9585 15.1138 18.3339 15.2638 18.7194 15.2638C19.105 15.2638 19.4905 15.1038 19.7543 14.8437C20.0283 14.5736 20.1805 14.2036 20.1805 13.8235C20.1805 13.4434 20.0283 13.0733 19.7543 12.8032C19.4804 12.5331 19.105 12.3831 18.7194 12.3831C18.3339 12.3831 17.9585 12.5331 17.6845 12.8032C17.4106 13.0733 17.2584 13.4434 17.2584 13.8235C17.2584 14.2036 17.4106 14.5736 17.6845 14.8437ZM27.7191 27.4369L29.2917 24.7562C29.9411 23.6459 30.0019 22.4856 29.4541 21.5554C28.9163 20.6352 27.8611 20.105 26.5624 20.105H23.4273C22.1285 20.105 21.0733 20.6352 20.5356 21.5554C19.9979 22.4856 20.0587 23.6459 20.7081 24.7562L22.2807 27.4369C22.9301 28.5471 23.9244 29.1873 24.9999 29.1873C26.0754 29.1873 27.0697 28.5471 27.7191 27.4369ZM31.2804 15.2638C31.6659 15.2638 32.0413 15.1138 32.3153 14.8437C32.5791 14.5736 32.7414 14.1936 32.7414 13.8235C32.7414 13.4434 32.5892 13.0733 32.3153 12.8032C32.0413 12.5331 31.6659 12.3831 31.2804 12.3831C30.8948 12.3831 30.5194 12.5331 30.2455 12.8032C29.9715 13.0733 29.8193 13.4434 29.8193 13.8235C29.8193 14.2036 29.9715 14.5736 30.2455 14.8437C30.5194 15.1138 30.8948 15.2638 31.2804 15.2638ZM41.944 6.8717L49.655 15.984C49.8782 16.244 50 16.5741 50 16.9142C50 20.6952 46.875 23.7759 43.0397 23.7759C42.6643 23.7759 42.2991 23.7459 41.944 23.6859V6.8717ZM6.96025 23.7759C3.12501 23.7759 0 20.6952 0 16.9142C0 16.5741 0.121754 16.2441 0.344969 15.984L8.05603 6.87171V23.6859C7.70092 23.7459 7.33566 23.7759 6.96025 23.7759ZM25 36.239C24.5739 36.549 24.1275 36.819 23.6607 37.059C22.5142 37.649 21.2561 38.029 19.9777 38.179C21.3474 39.329 23.1128 39.999 25 39.999C26.8973 39.999 28.6628 39.319 30.0224 38.179C28.7338 38.029 27.4858 37.649 26.3393 37.059C25.8726 36.819 25.4262 36.549 25 36.239Z" fill="url(#paint0_linear_103_10)"/>
<defs>
<linearGradient id="paint0_linear_103_10" x1="25" y1="0" x2="25" y2="21" gradientUnits="userSpaceOnUse">
<stop stop-color="white" stop-opacity="0.6"/>
<stop offset="1" stop-color="white"/>
</linearGradient>
</defs>
</svg>
