<svg width="40" height="40" viewBox="0 0 40 40" fill="none" xmlns="http://www.w3.org/2000/svg">
<path fill-rule="evenodd" clip-rule="evenodd" d="M14.5601 12.39C15.9201 12.39 17.2401 11.68 18.1601 10.45C19.0201 9.3 19.5001 7.79 19.5001 6.2C19.5001 4.61 19.0301 3.1 18.1601 1.95C17.2401 0.71 15.9201 0 14.5601 0C13.2001 0 11.8801 0.71 10.9601 1.94C10.1001 3.09 9.62012 4.6 9.62012 6.19C9.62012 7.78 10.0901 9.29 10.9601 10.44C11.8801 11.68 13.2001 12.39 14.5601 12.39ZM20 15.7C15.46 15.7 11.2 17.47 7.99002 20.67C4.78002 23.87 3.02002 28.1399 3.02002 32.68C3.02002 34.11 3.43002 35.49 4.21002 36.68C5.57002 38.7599 7.86002 40 10.34 40C12.38 40 13.97 39.5299 15.5 39.07C16.94 38.6399 18.3 38.24 20 38.24C21.7 38.24 23.06 38.6399 24.5 39.07C26.04 39.5299 27.63 40 29.66 40C32.14 40 34.43 38.7599 35.79 36.68C36.57 35.49 36.98 34.0999 36.98 32.68C36.98 28.1399 35.21 23.88 32.01 20.67C28.8 17.47 24.54 15.7 20 15.7ZM23.77 28.08H21.18V30.67C21.18 31.32 20.66 31.84 20.01 31.84C19.36 31.84 18.84 31.32 18.84 30.67V28.08H16.25C15.6 28.08 15.08 27.56 15.08 26.91C15.08 26.26 15.6 25.74 16.25 25.74H18.84V23.15C18.84 22.5 19.36 21.9799 20.01 21.9799C20.66 21.9799 21.18 22.5 21.18 23.15V25.74H23.77C24.42 25.74 24.94 26.26 24.94 26.91C24.94 27.56 24.41 28.08 23.77 28.08ZM29.04 10.45C28.12 11.68 26.8 12.39 25.44 12.39C24.08 12.39 22.76 11.68 21.84 10.44C20.98 9.29 20.5 7.78 20.5 6.19C20.5 4.6 20.98 3.09 21.84 1.94C22.76 0.71 24.08 0 25.44 0C26.8 0 28.11 0.71 29.04 1.95C29.91 3.1 30.38 4.61 30.38 6.2C30.38 7.79 29.9 9.3 29.04 10.45ZM38.8499 7.12994C38.0399 6.04994 36.8899 5.43994 35.6899 5.43994C34.4899 5.43994 33.3399 6.05994 32.5299 7.12994C31.7899 8.11994 31.3799 9.41994 31.3799 10.7899C31.3799 12.1599 31.7899 13.4599 32.5299 14.4499C33.3399 15.5299 34.4899 16.1399 35.6899 16.1399C36.8899 16.1399 38.0399 15.5199 38.8499 14.4499C39.5899 13.4599 39.9999 12.1599 39.9999 10.7999C39.9999 9.42994 39.5899 8.12994 38.8499 7.12994ZM8.62 10.7999C8.62 12.1699 8.21 13.4699 7.47 14.4599C6.66 15.5299 5.51 16.1499 4.31 16.1499C3.11 16.1499 1.96 15.5399 1.15 14.4599C0.41 13.4699 0 12.1699 0 10.7999C0 9.42994 0.41 8.12994 1.15 7.12994C1.96 6.05994 3.11 5.43994 4.31 5.43994C5.51 5.43994 6.66 6.05994 7.47 7.13994C8.21 8.12994 8.62 9.42994 8.62 10.7999Z" fill="url(#paint0_linear_103_9)"/>
<defs>
<linearGradient id="paint0_linear_103_9" x1="19.9999" y1="0" x2="19.9999" y2="28" gradientUnits="userSpaceOnUse">
<stop stop-color="#FFCFC2"/>
<stop offset="1" stop-color="#FF714A"/>
</linearGradient>
</defs>
</svg>
