<svg width="41" height="40" viewBox="0 0 41 40" fill="none" xmlns="http://www.w3.org/2000/svg">
<path fill-rule="evenodd" clip-rule="evenodd" d="M36.2201 4.7844L40.6601 9.22385C41.1101 9.68379 41.1101 10.4237 40.6601 10.8836C40.4301 11.1136 40.1301 11.2236 39.8301 11.2236C39.5301 11.2236 39.2301 11.1136 39.0001 10.8836L35.3901 7.26409L32.6101 10.0437L34.0001 11.4336C35.6801 13.1234 35.6801 15.853 34.0001 17.5328L31.7901 19.7425L28.6301 22.9121L25.1401 19.4226C24.6801 18.9626 23.9401 18.9626 23.4801 19.4226C23.0201 19.8825 23.0201 20.6224 23.4801 21.0824L26.9701 24.5719L24.8901 26.6517L19.6201 21.3823C19.1601 20.9224 18.4201 20.9224 17.9601 21.3823C17.5001 21.8423 17.5001 22.5822 17.9601 23.0421L23.2301 28.3115L21.1501 30.3912L17.6601 26.9016C17.2001 26.4417 16.4601 26.4417 16.0001 26.9016C15.5401 27.3616 15.5401 28.1015 16.0001 28.5614L19.4901 32.051L18.5401 33.0009C17.7301 33.8108 16.6501 34.2607 15.4901 34.2607C14.3301 34.2607 13.2501 33.8108 12.4401 33.0009L11.0501 31.611L3.00012 39.66C2.77012 39.89 2.47012 40 2.17012 40C1.87012 40 1.57012 39.89 1.34012 39.66C0.880117 39.2001 0.880117 38.4602 1.34012 38.0002L9.39012 29.9612L8.00012 28.5714C7.19012 27.7615 6.74012 26.6717 6.74012 25.5218C6.74012 24.362 7.19012 23.2821 8.00012 22.4722L21.2401 9.22385L23.4601 7.00412C24.2701 6.19422 25.3601 5.74428 26.5101 5.74428C27.6701 5.74428 28.7501 6.19422 29.5601 7.00412L30.9501 8.39395L33.7301 5.6143L30.1201 2.00475C29.6601 1.54481 29.6601 0.804899 30.1201 0.344957C30.5801 -0.114986 31.3201 -0.114986 31.7801 0.344957L36.2201 4.7844ZM30.9501 17.2728L32.3401 15.883C33.1101 15.1131 33.1101 13.8633 32.3401 13.1034L27.9001 8.66392C27.5301 8.29396 27.0401 8.09399 26.5101 8.09399C25.9801 8.09399 25.4901 8.29396 25.1201 8.66392L23.7301 10.0537L30.9501 17.2728ZM32.5698 27.1018C32.7898 26.8818 32.9098 26.5818 32.9098 26.2718C32.9098 25.9618 32.7798 25.6618 32.5698 25.4418C32.3498 25.2218 32.0498 25.1018 31.7398 25.1018C31.4298 25.1018 31.1298 25.2318 30.9098 25.4418C30.6898 25.6618 30.5698 25.9618 30.5698 26.2718C30.5698 26.5818 30.6998 26.8818 30.9098 27.1018C31.1298 27.3218 31.4298 27.4418 31.7398 27.4418C32.0498 27.4418 32.3498 27.3218 32.5698 27.1018ZM29.4899 28.0917C29.4899 28.4017 29.3699 28.7017 29.1499 28.9217C28.9299 29.1417 28.6299 29.2617 28.3199 29.2617C28.0099 29.2617 27.7099 29.1417 27.4899 28.9217C27.2799 28.7017 27.1499 28.4017 27.1499 28.0917C27.1499 27.7817 27.2699 27.4717 27.4899 27.2617C27.7099 27.0517 28.0099 26.9217 28.3199 26.9217C28.6299 26.9217 28.9299 27.0417 29.1499 27.2617C29.3599 27.4817 29.4899 27.7817 29.4899 28.0917ZM27.1099 36.7804C27.1099 33.2308 29.9999 30.3412 33.5499 30.3412C37.0999 30.3412 39.9899 33.2308 39.9899 36.7804C39.9899 37.4103 39.8099 38.0202 39.4699 38.5401C38.8699 39.45 37.8599 40 36.7699 40C35.9799 40 35.3699 39.82 34.8299 39.66L34.7996 39.6513L34.7996 39.6513C34.3632 39.5251 33.9995 39.42 33.5499 39.42C33.0899 39.42 32.7099 39.53 32.2699 39.66C31.7299 39.82 31.1199 40 30.3299 40C29.2399 40 28.2299 39.45 27.6299 38.5401C27.2899 38.0202 27.1099 37.4103 27.1099 36.7804ZM36.5299 26.2718C36.5299 26.5818 36.4099 26.8818 36.1899 27.1018C35.9799 27.3218 35.6699 27.4518 35.3599 27.4418C35.0499 27.4418 34.7499 27.3218 34.5299 27.1018C34.3199 26.8818 34.1899 26.5818 34.1899 26.2718C34.1899 25.9618 34.3099 25.6618 34.5299 25.4418C34.7499 25.2318 35.0499 25.1018 35.3599 25.1018C35.6699 25.1018 35.9699 25.2218 36.1899 25.4418C36.4099 25.6618 36.5299 25.9618 36.5299 26.2718ZM39.6099 28.9217C39.8299 28.7017 39.9499 28.4017 39.9499 28.0917C39.9499 27.7817 39.8199 27.4817 39.6099 27.2617C39.3899 27.0417 39.0899 26.9217 38.7799 26.9217C38.4699 26.9217 38.1699 27.0517 37.9499 27.2617C37.7299 27.4717 37.6099 27.7817 37.6099 28.0917C37.6099 28.4017 37.7399 28.7017 37.9499 28.9217C38.1699 29.1417 38.4699 29.2617 38.7799 29.2617C39.0899 29.2617 39.3899 29.1417 39.6099 28.9217Z" fill="url(#paint0_linear_103_11)"/>
<defs>
<linearGradient id="paint0_linear_103_11" x1="20.9964" y1="0" x2="20.9964" y2="24" gradientUnits="userSpaceOnUse">
<stop stop-color="white" stop-opacity="0.6"/>
<stop offset="1" stop-color="white"/>
</linearGradient>
</defs>
</svg>
